<?xml version="1.0" encoding="UTF-8"?>
<svg width="16px" height="16px" viewBox="0 0 16 16" version="1.1" xmlns="http://www.w3.org/2000/svg" xmlns:xlink="http://www.w3.org/1999/xlink">
    <!-- Generator: Sketch 49 (51002) - http://www.bohemiancoding.com/sketch -->
    <title>Group 27</title>
    <desc>Created with Sketch.</desc>
    <defs></defs>
    <g id="应用" stroke="none" stroke-width="1" fill="none" fill-rule="evenodd">
        <g id="应用－操作表单" transform="translate(-1162.000000, -18.000000)" fill="#FFFFFF" stroke="#FFFFFF" stroke-width="0.6">
            <g id="Group-9-Copy-2">
                <g id="Group-27" transform="translate(1163.000000, 18.000000)">
                    <path d="M9.58799714,1.38814165 L9.58799714,1.38814165 C9.58799714,1.7237396 9.86005304,1.9957955 10.195651,1.9957955 L13.1031198,1.9957955 C13.4265111,1.9957955 13.6889736,2.26802442 13.6889736,2.60344934 L13.6889736,13.3965507 C13.6889736,13.7319756 13.4265111,14.0042045 13.1031198,14.0042045 L1.3860443,14.0042045 C1.06265301,14.0042045 0.800190522,13.7319756 0.800190522,13.3965507 L0.800190522,2.60344934 C0.800190522,2.26802442 1.06265301,1.9957955 1.3860443,1.9957955 L4.2935131,1.9957955 C4.62911105,1.9957955 4.90116694,1.7237396 4.90116694,1.38814165 L4.90116694,1.38814165 C4.90116694,1.0525437 4.62911105,0.780487805 4.2935131,0.780487805 L1.3860443,0.780487805 C0.417042153,0.780487805 -0.371517028,1.59838988 -0.371517028,2.60344934 L-0.371517028,13.3965507 C-0.371517028,14.4016101 0.417042153,15.2195122 1.3860443,15.2195122 L13.1031198,15.2195122 C14.0721219,15.2195122 14.8606811,14.4016101 14.8606811,13.3965507 L14.8606811,2.60344934 C14.8606811,1.59838988 14.0721219,0.780487805 13.1031198,0.780487805 L10.195651,0.780487805 C9.86005304,0.780487805 9.58799714,1.0525437 9.58799714,1.38814165 Z" id="Icon-92" transform="translate(7.244582, 8.000000) rotate(-90.000000) translate(-7.244582, -8.000000) "></path>
                    <path d="M7.58715164,7.46945395 L6.26355842,6.04204093 C5.97525609,5.73112478 5.97525609,5.22703009 6.26355842,4.91611394 C6.55186076,4.60519779 7.0192912,4.60519779 7.30759354,4.91611394 L9.77250244,7.574365 C9.93029251,7.74453179 10.0445784,7.97256436 10.029649,8.19512195 C10.0147197,8.41767954 9.93029251,8.64571211 9.77250244,8.8158789 L7.30759354,11.47413 C7.0192912,11.7850461 6.55186076,11.7850461 6.26355842,11.47413 C5.97525609,11.1632138 5.97525609,10.6591191 6.26355842,10.348203 L7.45643923,9.06175516 L0.73824431,9.06175516 C0.330523236,9.06175516 0,8.7053064 0,8.26560456 C0,7.82590272 0.330523236,7.46945395 0.73824431,7.46945395 L7.58715164,7.46945395 Z" id="Combined-Shape"></path>
                </g>
            </g>
        </g>
    </g>
</svg>