<?xml version="1.0" encoding="UTF-8"?>
<svg width="20px" height="20px" viewBox="0 0 20 20" version="1.1" xmlns="http://www.w3.org/2000/svg" xmlns:xlink="http://www.w3.org/1999/xlink">
    <!-- Generator: Sketch 49 (51002) - http://www.bohemiancoding.com/sketch -->
    <title>network-3</title>
    <desc>Created with Sketch.</desc>
    <defs></defs>
    <g id="应用" stroke="none" stroke-width="1" fill="none" fill-rule="evenodd">
        <g id="应用－操作表单" transform="translate(-1118.000000, -16.000000)" fill="#FFFFFF" stroke="#FFFFFF" stroke-width="0.6">
            <g id="Group-9-Copy-2">
                <path d="M1135.5947,26.6072 C1135.5947,25.3906 1134.70494,24.4 1133.45241,24.4 L1128.82763,24.4 L1128.82763,21.104 C1129.62287,20.7626 1130.18658,20.0036 1130.18658,19.1182 C1130.18658,17.9502 1129.20905,17 1128.00697,17 C1126.80469,17 1125.82674,17.9502 1125.82674,19.1182 C1125.82674,20.0036 1126.39169,20.7628 1127.18754,21.0788 C1127.18713,21.0874 1127.18713,24.4 1127.18713,24.4 L1122.56235,24.4 C1121.30983,24.4 1120.42006,25.3906 1120.42006,26.6072 L1120.42006,30.9222 C1119.59981,31.2388 1119,31.9974 1119,32.8818 C1119,34.0498 1119.94575,35 1121.14803,35 C1122.35011,35 1123.37214,34.0498 1123.37214,32.8818 C1123.37214,31.9974 1122.67575,31.2388 1122.06056,30.9222 L1122.06056,26.6072 C1122.06056,26.2728 1122.21928,26 1122.56235,26 L1127.18713,26 L1127.18713,30.9222 C1126.36688,31.2388 1125.82921,31.9974 1125.82921,32.8818 C1125.82921,34.0498 1126.80633,35 1128.00861,35 C1129.21069,35 1130.18597,34.0498 1130.18597,32.8818 C1130.18597,31.9974 1129.64788,31.2388 1128.82763,30.9222 L1128.82763,26 L1133.45241,26 C1133.79548,26 1133.9542,26.2728 1133.9542,26.6072 L1133.9542,30.9222 C1133.33901,31.2388 1132.65882,31.9974 1132.65882,32.8818 C1132.65882,34.0498 1133.66691,35 1134.86919,35 C1136.07127,35 1137,34.0498 1137,32.8818 C1137,31.9974 1136.41496,31.2388 1135.5947,30.9222 L1135.5947,26.6072 Z" id="network-3"></path>
            </g>
        </g>
    </g>
</svg>