<?xml version="1.0" encoding="UTF-8"?>
<svg width="16px" height="16px" viewBox="0 0 16 16" version="1.1" xmlns="http://www.w3.org/2000/svg" xmlns:xlink="http://www.w3.org/1999/xlink">
    <!-- Generator: Sketch 49 (51002) - http://www.bohemiancoding.com/sketch -->
    <title>Shape</title>
    <desc>Created with Sketch.</desc>
    <defs></defs>
    <g id="应用" stroke="none" stroke-width="1" fill="none" fill-rule="evenodd">
        <g id="应用－操作表单" transform="translate(-992.000000, -18.000000)" fill="#FFFFFF" stroke="#FFFFFF">
            <g id="Group-9-Copy-2">
                <path d="M1006.81788,20.060771 L1003.62842,23.2461949 C1004.46742,24.2758582 1004.9702,25.5886013 1004.9702,27.0195534 C1004.9702,30.3231863 1002.29131,33 998.985101,33 C995.678897,33 993,30.3231863 993,27.0195534 C993,23.7159205 995.678897,21.0391068 998.985101,21.0391068 C1000.41094,21.0391068 1001.72004,21.5368292 1002.74739,22.368959 L1005.93685,19.1819798 C1006.05826,19.0606599 1006.21703,19 1006.37736,19 C1006.53614,19 1006.69646,19.0606599 1006.81788,19.1819798 C1007.06071,19.4246195 1007.06071,19.8181313 1006.81788,20.060771 L1006.81788,20.060771 Z M1000.87792,22.5400511 C1000.27863,22.2865237 999.641984,22.1589823 998.985101,22.1589823 C998.328219,22.1589823 997.691572,22.2880791 997.092284,22.5400511 C996.513231,22.7842462 995.993329,23.1357627 995.54503,23.5821575 C995.098288,24.0285524 994.746498,24.5496056 994.502113,25.128208 C994.248388,25.7270303 994.120747,26.3631819 994.120747,27.0195534 C994.120747,27.6759249 994.249944,28.3120764 994.502113,28.9108988 C994.746498,29.4895012 995.098288,30.008999 995.54503,30.4569492 C995.991772,30.9033441 996.513231,31.2548606 997.092284,31.4990557 C997.691572,31.752583 998.328219,31.8801244 998.985101,31.8801244 C999.641984,31.8801244 1000.27863,31.7510277 1000.87792,31.4990557 C1001.45697,31.2548606 1001.97687,30.9033441 1002.42517,30.4569492 C1002.87191,30.0105544 1003.2237,29.4910565 1003.46809,28.9108988 C1003.72181,28.3120764 1003.84946,27.6759249 1003.84946,27.0195534 C1003.84946,26.3631819 1003.72026,25.7270303 1003.46809,25.128208 C1003.2237,24.5496056 1002.87191,24.0301078 1002.42517,23.5821575 C1001.97687,23.1357627 1001.45697,22.7858016 1000.87792,22.5400511 L1000.87792,22.5400511 Z" id="Shape" transform="translate(1000.000000, 26.000000) scale(1, -1) translate(-1000.000000, -26.000000) "></path>
            </g>
        </g>
    </g>
</svg>